<svg xmlns="http://www.w3.org/2000/svg" viewBox="0 0 380 240" width="380" height="240" role="img" aria-label="Balcones, Full privilege members">
<rect width="380" height="240" rx="10" fill="#201E24" stroke="#332F38"/>
<text x="12" y="18" fill="#F7F3EA" font-family="system-ui, -apple-system, 'Helvetica Neue', Arial, sans-serif" font-size="13.5" font-weight="700">Balcones</text>
<text x="12" y="31" fill="#6E6862" font-family="system-ui, -apple-system, 'Helvetica Neue', Arial, sans-serif" font-size="9.5">Full privilege members</text>
<line x1="44" y1="214.0" x2="368" y2="214.0" stroke="#332F38" stroke-width="1"/>
<text x="38" y="217.5" fill="#A39B92" font-family="system-ui, -apple-system, 'Helvetica Neue', Arial, sans-serif" font-size="10" text-anchor="end">0</text>
<line x1="44" y1="156.7" x2="368" y2="156.7" stroke="#332F38" stroke-width="1"/>
<text x="38" y="160.2" fill="#A39B92" font-family="system-ui, -apple-system, 'Helvetica Neue', Arial, sans-serif" font-size="10" text-anchor="end">250</text>
<line x1="44" y1="99.3" x2="368" y2="99.3" stroke="#332F38" stroke-width="1"/>
<text x="38" y="102.8" fill="#A39B92" font-family="system-ui, -apple-system, 'Helvetica Neue', Arial, sans-serif" font-size="10" text-anchor="end">500</text>
<line x1="44" y1="42.0" x2="368" y2="42.0" stroke="#332F38" stroke-width="1"/>
<text x="38" y="45.5" fill="#A39B92" font-family="system-ui, -apple-system, 'Helvetica Neue', Arial, sans-serif" font-size="10" text-anchor="end">750</text>
<text x="44.0" y="231" fill="#6E6862" font-family="system-ui, -apple-system, 'Helvetica Neue', Arial, sans-serif" font-size="10" text-anchor="middle">2008</text>
<text x="96.5" y="231" fill="#6E6862" font-family="system-ui, -apple-system, 'Helvetica Neue', Arial, sans-serif" font-size="10" text-anchor="middle">2011</text>
<text x="149.1" y="231" fill="#6E6862" font-family="system-ui, -apple-system, 'Helvetica Neue', Arial, sans-serif" font-size="10" text-anchor="middle">2014</text>
<text x="201.6" y="231" fill="#6E6862" font-family="system-ui, -apple-system, 'Helvetica Neue', Arial, sans-serif" font-size="10" text-anchor="middle">2017</text>
<text x="254.2" y="231" fill="#6E6862" font-family="system-ui, -apple-system, 'Helvetica Neue', Arial, sans-serif" font-size="10" text-anchor="middle">2020</text>
<text x="306.7" y="231" fill="#6E6862" font-family="system-ui, -apple-system, 'Helvetica Neue', Arial, sans-serif" font-size="10" text-anchor="middle">2023</text>
<text x="359.2" y="231" fill="#6E6862" font-family="system-ui, -apple-system, 'Helvetica Neue', Arial, sans-serif" font-size="10" text-anchor="middle">2026</text>
<path d="M44.0,214.0 L44.0,113.1 L45.5,115.6 L46.9,120.7 L48.4,134.9 L49.8,137.9 L51.3,137.4 L52.8,137.4 L54.2,137.4 L55.7,136.3 L57.1,138.3 L58.6,139.9 L60.1,141.8 L61.5,140.6 L63.0,126.2 L64.4,126.9 L65.9,125.5 L67.4,122.7 L68.8,120.4 L70.3,121.1 L71.7,122.0 L73.2,119.1 L74.6,119.7 L76.1,119.1 L77.6,120.4 L79.0,120.2 L80.5,119.7 L81.9,119.3 L83.4,115.4 L84.9,113.8 L86.3,110.3 L87.8,105.3 L89.2,104.1 L90.7,101.9 L92.2,103.2 L93.6,102.3 L95.1,101.4 L96.5,103.2 L98.0,105.5 L99.5,106.0 L100.9,106.7 L102.4,106.9 L103.8,107.6 L105.3,102.3 L106.8,111.0 L108.2,113.8 L109.7,114.9 L111.1,115.6 L112.6,117.0 L114.1,121.3 L115.5,120.7 L117.0,114.9 L118.4,110.8 L119.9,106.9 L121.4,104.1 L122.8,104.1 L124.3,100.3 L125.7,100.9 L127.2,102.8 L128.6,103.0 L130.1,103.5 L131.6,104.4 L133.0,104.4 L134.5,108.5 L135.9,106.2 L137.4,105.8 L138.9,102.5 L140.3,103.9 L141.8,104.4 L143.2,102.3 L144.7,104.4 L146.2,108.7 L147.6,111.7 L149.1,107.6 L150.5,106.0 L152.0,105.1 L153.5,107.4 L154.9,107.8 L156.4,108.5 L157.8,118.4 L159.3,109.4 L160.8,118.1 L162.2,117.2 L163.7,116.3 L165.1,118.6 L166.6,121.1 L168.1,120.9 L169.5,123.0 L171.0,122.5 L172.4,121.6 L173.9,120.2 L175.4,118.6 L176.8,119.5 L178.3,117.9 L179.7,121.1 L181.2,123.6 L182.6,129.4 L184.1,139.9 L185.6,142.7 L187.0,129.1 L188.5,123.2 L189.9,116.1 L191.4,113.3 L192.9,109.9 L194.3,109.7 L195.8,109.2 L197.2,109.2 L198.7,108.7 L200.2,110.1 L201.6,110.8 L203.1,113.6 L204.5,111.9 L206.0,110.8 L207.5,109.0 L208.9,105.1 L210.4,103.7 L211.8,103.7 L213.3,103.7 L214.8,103.7 L216.2,102.5 L217.7,103.9 L219.1,106.4 L220.6,108.3 L222.1,106.2 L223.5,105.5 L225.0,102.3 L226.4,96.8 L227.9,96.4 L229.4,95.9 L230.8,96.1 L232.3,98.2 L233.7,98.2 L235.2,99.3 L236.6,102.5 L238.1,103.0 L239.6,101.9 L241.0,99.1 L242.5,97.5 L243.9,92.0 L245.4,90.2 L246.9,90.8 L248.3,91.5 L249.8,94.7 L251.2,95.0 L252.7,98.6 L254.2,101.9 L255.6,104.4 L257.1,102.8 L258.5,103.0 L260.0,100.0 L261.5,91.8 L262.9,89.5 L264.4,84.0 L265.8,80.1 L267.3,76.4 L268.8,75.9 L270.2,82.8 L271.7,83.5 L273.1,83.5 L274.6,84.7 L276.1,81.2 L277.5,76.9 L279.0,73.4 L280.4,71.4 L281.9,70.7 L283.4,69.3 L284.8,68.6 L286.3,66.1 L287.7,69.5 L289.2,66.8 L290.6,75.7 L292.1,77.8 L293.6,79.6 L295.0,74.8 L296.5,73.6 L297.9,71.4 L299.4,72.5 L300.9,76.2 L302.3,76.6 L303.8,75.9 L305.2,78.2 L306.7,77.1 L308.2,79.8 L309.6,79.4 L311.1,77.5 L312.5,75.7 L314.0,73.6 L315.5,73.2 L316.9,74.3 L318.4,75.5 L319.8,73.4 L321.3,75.3 L322.8,80.3 L324.2,82.6 L325.7,83.5 L327.1,82.6 L328.6,81.2 L330.1,80.5 L331.5,81.2 L333.0,81.4 L334.4,81.2 L335.9,82.8 L337.4,81.9 L338.8,84.4 L340.3,87.9 L341.7,90.6 L343.2,93.1 L344.6,93.6 L346.1,92.9 L347.6,89.5 L349.0,87.2 L350.5,84.9 L351.9,78.5 L353.4,77.3 L354.9,76.9 L356.3,76.6 L357.8,74.1 L359.2,75.0 L360.7,74.8 L362.2,72.5 L363.6,71.6 L365.1,69.1 L366.5,65.4 L368.0,63.8 L368.0,214.0 Z" fill="#C8102E" opacity="0.14"/>
<path d="M44.0,113.1 L45.5,115.6 L46.9,120.7 L48.4,134.9 L49.8,137.9 L51.3,137.4 L52.8,137.4 L54.2,137.4 L55.7,136.3 L57.1,138.3 L58.6,139.9 L60.1,141.8 L61.5,140.6 L63.0,126.2 L64.4,126.9 L65.9,125.5 L67.4,122.7 L68.8,120.4 L70.3,121.1 L71.7,122.0 L73.2,119.1 L74.6,119.7 L76.1,119.1 L77.6,120.4 L79.0,120.2 L80.5,119.7 L81.9,119.3 L83.4,115.4 L84.9,113.8 L86.3,110.3 L87.8,105.3 L89.2,104.1 L90.7,101.9 L92.2,103.2 L93.6,102.3 L95.1,101.4 L96.5,103.2 L98.0,105.5 L99.5,106.0 L100.9,106.7 L102.4,106.9 L103.8,107.6 L105.3,102.3 L106.8,111.0 L108.2,113.8 L109.7,114.9 L111.1,115.6 L112.6,117.0 L114.1,121.3 L115.5,120.7 L117.0,114.9 L118.4,110.8 L119.9,106.9 L121.4,104.1 L122.8,104.1 L124.3,100.3 L125.7,100.9 L127.2,102.8 L128.6,103.0 L130.1,103.5 L131.6,104.4 L133.0,104.4 L134.5,108.5 L135.9,106.2 L137.4,105.8 L138.9,102.5 L140.3,103.9 L141.8,104.4 L143.2,102.3 L144.7,104.4 L146.2,108.7 L147.6,111.7 L149.1,107.6 L150.5,106.0 L152.0,105.1 L153.5,107.4 L154.9,107.8 L156.4,108.5 L157.8,118.4 L159.3,109.4 L160.8,118.1 L162.2,117.2 L163.7,116.3 L165.1,118.6 L166.6,121.1 L168.1,120.9 L169.5,123.0 L171.0,122.5 L172.4,121.6 L173.9,120.2 L175.4,118.6 L176.8,119.5 L178.3,117.9 L179.7,121.1 L181.2,123.6 L182.6,129.4 L184.1,139.9 L185.6,142.7 L187.0,129.1 L188.5,123.2 L189.9,116.1 L191.4,113.3 L192.9,109.9 L194.3,109.7 L195.8,109.2 L197.2,109.2 L198.7,108.7 L200.2,110.1 L201.6,110.8 L203.1,113.6 L204.5,111.9 L206.0,110.8 L207.5,109.0 L208.9,105.1 L210.4,103.7 L211.8,103.7 L213.3,103.7 L214.8,103.7 L216.2,102.5 L217.7,103.9 L219.1,106.4 L220.6,108.3 L222.1,106.2 L223.5,105.5 L225.0,102.3 L226.4,96.8 L227.9,96.4 L229.4,95.9 L230.8,96.1 L232.3,98.2 L233.7,98.2 L235.2,99.3 L236.6,102.5 L238.1,103.0 L239.6,101.9 L241.0,99.1 L242.5,97.5 L243.9,92.0 L245.4,90.2 L246.9,90.8 L248.3,91.5 L249.8,94.7 L251.2,95.0 L252.7,98.6 L254.2,101.9 L255.6,104.4 L257.1,102.8 L258.5,103.0 L260.0,100.0 L261.5,91.8 L262.9,89.5 L264.4,84.0 L265.8,80.1 L267.3,76.4 L268.8,75.9 L270.2,82.8 L271.7,83.5 L273.1,83.5 L274.6,84.7 L276.1,81.2 L277.5,76.9 L279.0,73.4 L280.4,71.4 L281.9,70.7 L283.4,69.3 L284.8,68.6 L286.3,66.1 L287.7,69.5 L289.2,66.8 L290.6,75.7 L292.1,77.8 L293.6,79.6 L295.0,74.8 L296.5,73.6 L297.9,71.4 L299.4,72.5 L300.9,76.2 L302.3,76.6 L303.8,75.9 L305.2,78.2 L306.7,77.1 L308.2,79.8 L309.6,79.4 L311.1,77.5 L312.5,75.7 L314.0,73.6 L315.5,73.2 L316.9,74.3 L318.4,75.5 L319.8,73.4 L321.3,75.3 L322.8,80.3 L324.2,82.6 L325.7,83.5 L327.1,82.6 L328.6,81.2 L330.1,80.5 L331.5,81.2 L333.0,81.4 L334.4,81.2 L335.9,82.8 L337.4,81.9 L338.8,84.4 L340.3,87.9 L341.7,90.6 L343.2,93.1 L344.6,93.6 L346.1,92.9 L347.6,89.5 L349.0,87.2 L350.5,84.9 L351.9,78.5 L353.4,77.3 L354.9,76.9 L356.3,76.6 L357.8,74.1 L359.2,75.0 L360.7,74.8 L362.2,72.5 L363.6,71.6 L365.1,69.1 L366.5,65.4 L368.0,63.8" fill="none" stroke="#C8102E" stroke-width="2" stroke-linejoin="round" stroke-linecap="round"/>
<circle cx="368.0" cy="63.8" r="2.6" fill="#C8102E"/>
<text x="368" y="19" fill="#D9A94C" font-family="system-ui, -apple-system, 'Helvetica Neue', Arial, sans-serif" font-size="14" font-weight="700" text-anchor="end">655</text>
</svg>