<svg xmlns="http://www.w3.org/2000/svg" viewBox="0 0 380 240" width="380" height="240" role="img" aria-label="Canyon Oaks, Full privilege members">
<rect width="380" height="240" rx="10" fill="#201E24" stroke="#332F38"/>
<text x="12" y="18" fill="#F7F3EA" font-family="system-ui, -apple-system, 'Helvetica Neue', Arial, sans-serif" font-size="13.5" font-weight="700">Canyon Oaks</text>
<text x="12" y="31" fill="#6E6862" font-family="system-ui, -apple-system, 'Helvetica Neue', Arial, sans-serif" font-size="9.5">Full privilege members</text>
<line x1="44" y1="214.0" x2="368" y2="214.0" stroke="#332F38" stroke-width="1"/>
<text x="38" y="217.5" fill="#A39B92" font-family="system-ui, -apple-system, 'Helvetica Neue', Arial, sans-serif" font-size="10" text-anchor="end">0</text>
<line x1="44" y1="128.0" x2="368" y2="128.0" stroke="#332F38" stroke-width="1"/>
<text x="38" y="131.5" fill="#A39B92" font-family="system-ui, -apple-system, 'Helvetica Neue', Arial, sans-serif" font-size="10" text-anchor="end">200</text>
<line x1="44" y1="42.0" x2="368" y2="42.0" stroke="#332F38" stroke-width="1"/>
<text x="38" y="45.5" fill="#A39B92" font-family="system-ui, -apple-system, 'Helvetica Neue', Arial, sans-serif" font-size="10" text-anchor="end">400</text>
<text x="44.0" y="231" fill="#6E6862" font-family="system-ui, -apple-system, 'Helvetica Neue', Arial, sans-serif" font-size="10" text-anchor="middle">2022</text>
<text x="116.0" y="231" fill="#6E6862" font-family="system-ui, -apple-system, 'Helvetica Neue', Arial, sans-serif" font-size="10" text-anchor="middle">2023</text>
<text x="188.0" y="231" fill="#6E6862" font-family="system-ui, -apple-system, 'Helvetica Neue', Arial, sans-serif" font-size="10" text-anchor="middle">2024</text>
<text x="260.0" y="231" fill="#6E6862" font-family="system-ui, -apple-system, 'Helvetica Neue', Arial, sans-serif" font-size="10" text-anchor="middle">2025</text>
<text x="332.0" y="231" fill="#6E6862" font-family="system-ui, -apple-system, 'Helvetica Neue', Arial, sans-serif" font-size="10" text-anchor="middle">2026</text>
<line x1="44.0" y1="42.0" x2="368.0" y2="42.0" stroke="#D9A94C" stroke-width="1.5" stroke-dasharray="5 4" opacity="0.9"/>
<text x="47.0" y="54.0" fill="#D9A94C" font-family="system-ui, -apple-system, 'Helvetica Neue', Arial, sans-serif" font-size="10" font-weight="600" text-anchor="start">FWWL 400</text>
<path d="M44.0,214.0 L44.0,83.7 L50.0,84.1 L56.0,81.6 L62.0,79.0 L68.0,78.1 L74.0,78.6 L80.0,77.7 L86.0,77.7 L92.0,78.1 L98.0,79.4 L104.0,79.8 L110.0,90.6 L116.0,96.2 L122.0,98.8 L128.0,99.2 L134.0,100.5 L140.0,100.5 L146.0,100.5 L152.0,99.6 L158.0,101.8 L164.0,101.8 L170.0,102.6 L176.0,102.6 L182.0,105.6 L188.0,109.5 L194.0,109.1 L200.0,109.1 L206.0,108.2 L212.0,106.5 L218.0,104.4 L224.0,104.4 L230.0,105.6 L236.0,105.2 L242.0,106.9 L248.0,105.6 L254.0,108.2 L260.0,105.2 L266.0,103.9 L272.0,99.6 L278.0,95.8 L284.0,92.3 L290.0,86.7 L296.0,84.1 L302.0,81.6 L308.0,78.6 L314.0,78.1 L320.0,79.0 L326.0,81.1 L332.0,66.1 L338.0,65.6 L344.0,62.6 L350.0,57.9 L356.0,56.2 L362.0,51.5 L368.0,50.2 L368.0,214.0 Z" fill="#C8102E" opacity="0.14"/>
<path d="M44.0,83.7 L50.0,84.1 L56.0,81.6 L62.0,79.0 L68.0,78.1 L74.0,78.6 L80.0,77.7 L86.0,77.7 L92.0,78.1 L98.0,79.4 L104.0,79.8 L110.0,90.6 L116.0,96.2 L122.0,98.8 L128.0,99.2 L134.0,100.5 L140.0,100.5 L146.0,100.5 L152.0,99.6 L158.0,101.8 L164.0,101.8 L170.0,102.6 L176.0,102.6 L182.0,105.6 L188.0,109.5 L194.0,109.1 L200.0,109.1 L206.0,108.2 L212.0,106.5 L218.0,104.4 L224.0,104.4 L230.0,105.6 L236.0,105.2 L242.0,106.9 L248.0,105.6 L254.0,108.2 L260.0,105.2 L266.0,103.9 L272.0,99.6 L278.0,95.8 L284.0,92.3 L290.0,86.7 L296.0,84.1 L302.0,81.6 L308.0,78.6 L314.0,78.1 L320.0,79.0 L326.0,81.1 L332.0,66.1 L338.0,65.6 L344.0,62.6 L350.0,57.9 L356.0,56.2 L362.0,51.5 L368.0,50.2" fill="none" stroke="#C8102E" stroke-width="2" stroke-linejoin="round" stroke-linecap="round"/>
<circle cx="368.0" cy="50.2" r="2.6" fill="#C8102E"/>
<text x="368" y="19" fill="#D9A94C" font-family="system-ui, -apple-system, 'Helvetica Neue', Arial, sans-serif" font-size="14" font-weight="700" text-anchor="end">381</text>
</svg>