<svg xmlns="http://www.w3.org/2000/svg" viewBox="0 0 380 240" width="380" height="240" role="img" aria-label="Sylvania, Monthly dues line revenue">
<rect width="380" height="240" rx="10" fill="#201E24" stroke="#332F38"/>
<text x="12" y="18" fill="#F7F3EA" font-family="system-ui, -apple-system, 'Helvetica Neue', Arial, sans-serif" font-size="13.5" font-weight="700">Sylvania</text>
<text x="12" y="31" fill="#6E6862" font-family="system-ui, -apple-system, 'Helvetica Neue', Arial, sans-serif" font-size="9.5">Monthly dues line revenue</text>
<line x1="44" y1="214.0" x2="368" y2="214.0" stroke="#332F38" stroke-width="1"/>
<text x="38" y="217.5" fill="#A39B92" font-family="system-ui, -apple-system, 'Helvetica Neue', Arial, sans-serif" font-size="10" text-anchor="end">$0</text>
<line x1="44" y1="156.7" x2="368" y2="156.7" stroke="#332F38" stroke-width="1"/>
<text x="38" y="160.2" fill="#A39B92" font-family="system-ui, -apple-system, 'Helvetica Neue', Arial, sans-serif" font-size="10" text-anchor="end">$100k</text>
<line x1="44" y1="99.3" x2="368" y2="99.3" stroke="#332F38" stroke-width="1"/>
<text x="38" y="102.8" fill="#A39B92" font-family="system-ui, -apple-system, 'Helvetica Neue', Arial, sans-serif" font-size="10" text-anchor="end">$200k</text>
<line x1="44" y1="42.0" x2="368" y2="42.0" stroke="#332F38" stroke-width="1"/>
<text x="38" y="45.5" fill="#A39B92" font-family="system-ui, -apple-system, 'Helvetica Neue', Arial, sans-serif" font-size="10" text-anchor="end">$300k</text>
<text x="67.1" y="231" fill="#6E6862" font-family="system-ui, -apple-system, 'Helvetica Neue', Arial, sans-serif" font-size="10" text-anchor="middle">2020</text>
<text x="113.4" y="231" fill="#6E6862" font-family="system-ui, -apple-system, 'Helvetica Neue', Arial, sans-serif" font-size="10" text-anchor="middle">2021</text>
<text x="159.7" y="231" fill="#6E6862" font-family="system-ui, -apple-system, 'Helvetica Neue', Arial, sans-serif" font-size="10" text-anchor="middle">2022</text>
<text x="206.0" y="231" fill="#6E6862" font-family="system-ui, -apple-system, 'Helvetica Neue', Arial, sans-serif" font-size="10" text-anchor="middle">2023</text>
<text x="252.3" y="231" fill="#6E6862" font-family="system-ui, -apple-system, 'Helvetica Neue', Arial, sans-serif" font-size="10" text-anchor="middle">2024</text>
<text x="298.6" y="231" fill="#6E6862" font-family="system-ui, -apple-system, 'Helvetica Neue', Arial, sans-serif" font-size="10" text-anchor="middle">2025</text>
<text x="344.9" y="231" fill="#6E6862" font-family="system-ui, -apple-system, 'Helvetica Neue', Arial, sans-serif" font-size="10" text-anchor="middle">2026</text>
<path d="M44.0,214.0 L44.0,149.7 L47.9,150.0 L51.7,153.6 L55.6,153.8 L59.4,152.8 L63.3,154.8 L67.1,155.8 L71.0,154.6 L74.9,151.6 L78.7,148.1 L82.6,148.1 L86.4,135.8 L90.3,129.2 L94.1,126.9 L98.0,126.1 L101.9,125.3 L105.7,132.3 L109.6,133.9 L113.4,129.6 L117.3,129.4 L121.1,122.8 L125.0,107.5 L128.9,97.6 L132.7,96.3 L136.6,96.4 L140.4,96.7 L144.3,97.4 L148.1,98.3 L152.0,98.6 L155.9,99.4 L159.7,98.9 L163.6,99.3 L167.4,97.2 L171.3,90.0 L175.1,86.1 L179.0,83.0 L182.9,82.3 L186.7,83.7 L190.6,85.0 L194.4,86.9 L198.3,87.3 L202.1,88.9 L206.0,86.2 L209.9,86.5 L213.7,86.7 L217.6,74.6 L221.4,72.8 L225.3,72.2 L229.1,71.7 L233.0,74.0 L236.9,77.1 L240.7,78.8 L244.6,79.9 L248.4,80.1 L252.3,79.2 L256.1,78.6 L260.0,76.5 L263.9,66.3 L267.7,65.6 L271.6,63.9 L275.4,64.6 L279.3,68.4 L283.1,69.2 L287.0,71.3 L290.9,70.9 L294.7,71.2 L298.6,64.0 L302.4,59.7 L306.3,60.8 L310.1,55.7 L314.0,55.1 L317.9,55.2 L321.7,54.3 L325.6,56.2 L329.4,58.6 L333.3,61.7 L337.1,64.1 L341.0,65.2 L344.9,64.7 L348.7,63.7 L352.6,61.7 L356.4,57.6 L360.3,56.4 L364.1,57.2 L368.0,57.2 L368.0,214.0 Z" fill="#C8102E" opacity="0.14"/>
<path d="M44.0,149.7 L47.9,150.0 L51.7,153.6 L55.6,153.8 L59.4,152.8 L63.3,154.8 L67.1,155.8 L71.0,154.6 L74.9,151.6 L78.7,148.1 L82.6,148.1 L86.4,135.8 L90.3,129.2 L94.1,126.9 L98.0,126.1 L101.9,125.3 L105.7,132.3 L109.6,133.9 L113.4,129.6 L117.3,129.4 L121.1,122.8 L125.0,107.5 L128.9,97.6 L132.7,96.3 L136.6,96.4 L140.4,96.7 L144.3,97.4 L148.1,98.3 L152.0,98.6 L155.9,99.4 L159.7,98.9 L163.6,99.3 L167.4,97.2 L171.3,90.0 L175.1,86.1 L179.0,83.0 L182.9,82.3 L186.7,83.7 L190.6,85.0 L194.4,86.9 L198.3,87.3 L202.1,88.9 L206.0,86.2 L209.9,86.5 L213.7,86.7 L217.6,74.6 L221.4,72.8 L225.3,72.2 L229.1,71.7 L233.0,74.0 L236.9,77.1 L240.7,78.8 L244.6,79.9 L248.4,80.1 L252.3,79.2 L256.1,78.6 L260.0,76.5 L263.9,66.3 L267.7,65.6 L271.6,63.9 L275.4,64.6 L279.3,68.4 L283.1,69.2 L287.0,71.3 L290.9,70.9 L294.7,71.2 L298.6,64.0 L302.4,59.7 L306.3,60.8 L310.1,55.7 L314.0,55.1 L317.9,55.2 L321.7,54.3 L325.6,56.2 L329.4,58.6 L333.3,61.7 L337.1,64.1 L341.0,65.2 L344.9,64.7 L348.7,63.7 L352.6,61.7 L356.4,57.6 L360.3,56.4 L364.1,57.2 L368.0,57.2" fill="none" stroke="#C8102E" stroke-width="2" stroke-linejoin="round" stroke-linecap="round"/>
<circle cx="368.0" cy="57.2" r="2.6" fill="#C8102E"/>
<text x="368" y="19" fill="#D9A94C" font-family="system-ui, -apple-system, 'Helvetica Neue', Arial, sans-serif" font-size="14" font-weight="700" text-anchor="end">$273k</text>
</svg>