<svg xmlns="http://www.w3.org/2000/svg" viewBox="0 0 380 240" width="380" height="240" role="img" aria-label="Valor Club, Full privilege members">
<rect width="380" height="240" rx="10" fill="#201E24" stroke="#332F38"/>
<text x="12" y="18" fill="#F7F3EA" font-family="system-ui, -apple-system, 'Helvetica Neue', Arial, sans-serif" font-size="13.5" font-weight="700">Valor Club</text>
<text x="12" y="31" fill="#6E6862" font-family="system-ui, -apple-system, 'Helvetica Neue', Arial, sans-serif" font-size="9.5">Full privilege members</text>
<line x1="44" y1="214.0" x2="368" y2="214.0" stroke="#332F38" stroke-width="1"/>
<text x="38" y="217.5" fill="#A39B92" font-family="system-ui, -apple-system, 'Helvetica Neue', Arial, sans-serif" font-size="10" text-anchor="end">0</text>
<line x1="44" y1="156.7" x2="368" y2="156.7" stroke="#332F38" stroke-width="1"/>
<text x="38" y="160.2" fill="#A39B92" font-family="system-ui, -apple-system, 'Helvetica Neue', Arial, sans-serif" font-size="10" text-anchor="end">25</text>
<line x1="44" y1="99.3" x2="368" y2="99.3" stroke="#332F38" stroke-width="1"/>
<text x="38" y="102.8" fill="#A39B92" font-family="system-ui, -apple-system, 'Helvetica Neue', Arial, sans-serif" font-size="10" text-anchor="end">50</text>
<line x1="44" y1="42.0" x2="368" y2="42.0" stroke="#332F38" stroke-width="1"/>
<text x="38" y="45.5" fill="#A39B92" font-family="system-ui, -apple-system, 'Helvetica Neue', Arial, sans-serif" font-size="10" text-anchor="end">75</text>
<text x="44.0" y="231" fill="#6E6862" font-family="system-ui, -apple-system, 'Helvetica Neue', Arial, sans-serif" font-size="10" text-anchor="middle">2026</text>
<path d="M44.0,214.0 L44.0,81.0 L98.0,76.4 L152.0,71.8 L206.0,67.2 L260.0,64.9 L314.0,55.8 L368.0,55.8 L368.0,214.0 Z" fill="#C8102E" opacity="0.14"/>
<path d="M44.0,81.0 L98.0,76.4 L152.0,71.8 L206.0,67.2 L260.0,64.9 L314.0,55.8 L368.0,55.8" fill="none" stroke="#C8102E" stroke-width="2" stroke-linejoin="round" stroke-linecap="round"/>
<circle cx="368.0" cy="55.8" r="2.6" fill="#C8102E"/>
<text x="368" y="19" fill="#D9A94C" font-family="system-ui, -apple-system, 'Helvetica Neue', Arial, sans-serif" font-size="14" font-weight="700" text-anchor="end">69</text>
</svg>