<svg xmlns="http://www.w3.org/2000/svg" viewBox="0 0 380 240" width="380" height="240" role="img" aria-label="Wynstone, Full privilege members">
<rect width="380" height="240" rx="10" fill="#201E24" stroke="#332F38"/>
<text x="12" y="18" fill="#F7F3EA" font-family="system-ui, -apple-system, 'Helvetica Neue', Arial, sans-serif" font-size="13.5" font-weight="700">Wynstone</text>
<text x="12" y="31" fill="#6E6862" font-family="system-ui, -apple-system, 'Helvetica Neue', Arial, sans-serif" font-size="9.5">Full privilege members</text>
<line x1="44" y1="214.0" x2="368" y2="214.0" stroke="#332F38" stroke-width="1"/>
<text x="38" y="217.5" fill="#A39B92" font-family="system-ui, -apple-system, 'Helvetica Neue', Arial, sans-serif" font-size="10" text-anchor="end">0</text>
<line x1="44" y1="128.0" x2="368" y2="128.0" stroke="#332F38" stroke-width="1"/>
<text x="38" y="131.5" fill="#A39B92" font-family="system-ui, -apple-system, 'Helvetica Neue', Arial, sans-serif" font-size="10" text-anchor="end">200</text>
<line x1="44" y1="42.0" x2="368" y2="42.0" stroke="#332F38" stroke-width="1"/>
<text x="38" y="45.5" fill="#A39B92" font-family="system-ui, -apple-system, 'Helvetica Neue', Arial, sans-serif" font-size="10" text-anchor="end">400</text>
<text x="70.3" y="231" fill="#6E6862" font-family="system-ui, -apple-system, 'Helvetica Neue', Arial, sans-serif" font-size="10" text-anchor="middle">2018</text>
<text x="105.3" y="231" fill="#6E6862" font-family="system-ui, -apple-system, 'Helvetica Neue', Arial, sans-serif" font-size="10" text-anchor="middle">2019</text>
<text x="140.3" y="231" fill="#6E6862" font-family="system-ui, -apple-system, 'Helvetica Neue', Arial, sans-serif" font-size="10" text-anchor="middle">2020</text>
<text x="175.4" y="231" fill="#6E6862" font-family="system-ui, -apple-system, 'Helvetica Neue', Arial, sans-serif" font-size="10" text-anchor="middle">2021</text>
<text x="210.4" y="231" fill="#6E6862" font-family="system-ui, -apple-system, 'Helvetica Neue', Arial, sans-serif" font-size="10" text-anchor="middle">2022</text>
<text x="245.4" y="231" fill="#6E6862" font-family="system-ui, -apple-system, 'Helvetica Neue', Arial, sans-serif" font-size="10" text-anchor="middle">2023</text>
<text x="280.4" y="231" fill="#6E6862" font-family="system-ui, -apple-system, 'Helvetica Neue', Arial, sans-serif" font-size="10" text-anchor="middle">2024</text>
<text x="315.5" y="231" fill="#6E6862" font-family="system-ui, -apple-system, 'Helvetica Neue', Arial, sans-serif" font-size="10" text-anchor="middle">2025</text>
<text x="350.5" y="231" fill="#6E6862" font-family="system-ui, -apple-system, 'Helvetica Neue', Arial, sans-serif" font-size="10" text-anchor="middle">2026</text>
<path d="M44.0,214.0 L44.0,141.8 L46.9,141.8 L49.8,140.9 L52.8,133.2 L55.7,126.7 L58.6,120.3 L61.5,117.7 L64.4,117.7 L67.4,116.0 L70.3,107.8 L73.2,105.6 L76.1,99.2 L79.0,98.8 L81.9,98.3 L84.9,97.9 L87.8,97.5 L90.7,97.0 L93.6,98.3 L96.5,101.3 L99.5,102.2 L102.4,103.9 L105.3,99.2 L108.2,99.6 L111.1,99.2 L114.1,99.2 L117.0,97.9 L119.9,97.9 L122.8,97.5 L125.7,96.2 L128.6,97.5 L131.6,95.8 L134.5,92.3 L137.4,93.2 L140.3,91.4 L143.2,90.6 L146.2,90.6 L149.1,91.0 L152.0,89.3 L154.9,83.3 L157.8,81.6 L160.8,80.3 L163.7,76.4 L166.6,75.5 L169.5,75.1 L172.4,74.7 L175.4,74.2 L178.3,73.0 L181.2,70.4 L184.1,65.2 L187.0,63.1 L189.9,60.9 L192.9,60.5 L195.8,60.9 L198.7,61.8 L201.6,61.4 L204.5,61.4 L207.5,60.9 L210.4,60.5 L213.3,60.9 L216.2,60.9 L219.1,60.9 L222.1,63.1 L225.0,63.5 L227.9,63.5 L230.8,65.2 L233.7,66.1 L236.6,68.2 L239.6,69.5 L242.5,68.7 L245.4,68.7 L248.3,69.5 L251.2,69.1 L254.2,69.1 L257.1,69.1 L260.0,75.1 L262.9,74.7 L265.8,75.1 L268.8,76.0 L271.7,77.7 L274.6,79.8 L277.5,79.8 L280.4,81.1 L283.4,82.0 L286.3,80.7 L289.2,80.3 L292.1,80.3 L295.0,80.7 L297.9,79.8 L300.9,79.0 L303.8,79.8 L306.7,79.8 L309.6,81.6 L312.5,84.1 L315.5,84.1 L318.4,85.0 L321.3,83.7 L324.2,82.9 L327.1,81.6 L330.1,79.8 L333.0,80.3 L335.9,79.4 L338.8,78.6 L341.7,78.1 L344.6,80.3 L347.6,80.7 L350.5,81.1 L353.4,81.1 L356.3,79.8 L359.2,79.8 L362.2,79.0 L365.1,77.7 L368.0,76.8 L368.0,214.0 Z" fill="#C8102E" opacity="0.14"/>
<path d="M44.0,141.8 L46.9,141.8 L49.8,140.9 L52.8,133.2 L55.7,126.7 L58.6,120.3 L61.5,117.7 L64.4,117.7 L67.4,116.0 L70.3,107.8 L73.2,105.6 L76.1,99.2 L79.0,98.8 L81.9,98.3 L84.9,97.9 L87.8,97.5 L90.7,97.0 L93.6,98.3 L96.5,101.3 L99.5,102.2 L102.4,103.9 L105.3,99.2 L108.2,99.6 L111.1,99.2 L114.1,99.2 L117.0,97.9 L119.9,97.9 L122.8,97.5 L125.7,96.2 L128.6,97.5 L131.6,95.8 L134.5,92.3 L137.4,93.2 L140.3,91.4 L143.2,90.6 L146.2,90.6 L149.1,91.0 L152.0,89.3 L154.9,83.3 L157.8,81.6 L160.8,80.3 L163.7,76.4 L166.6,75.5 L169.5,75.1 L172.4,74.7 L175.4,74.2 L178.3,73.0 L181.2,70.4 L184.1,65.2 L187.0,63.1 L189.9,60.9 L192.9,60.5 L195.8,60.9 L198.7,61.8 L201.6,61.4 L204.5,61.4 L207.5,60.9 L210.4,60.5 L213.3,60.9 L216.2,60.9 L219.1,60.9 L222.1,63.1 L225.0,63.5 L227.9,63.5 L230.8,65.2 L233.7,66.1 L236.6,68.2 L239.6,69.5 L242.5,68.7 L245.4,68.7 L248.3,69.5 L251.2,69.1 L254.2,69.1 L257.1,69.1 L260.0,75.1 L262.9,74.7 L265.8,75.1 L268.8,76.0 L271.7,77.7 L274.6,79.8 L277.5,79.8 L280.4,81.1 L283.4,82.0 L286.3,80.7 L289.2,80.3 L292.1,80.3 L295.0,80.7 L297.9,79.8 L300.9,79.0 L303.8,79.8 L306.7,79.8 L309.6,81.6 L312.5,84.1 L315.5,84.1 L318.4,85.0 L321.3,83.7 L324.2,82.9 L327.1,81.6 L330.1,79.8 L333.0,80.3 L335.9,79.4 L338.8,78.6 L341.7,78.1 L344.6,80.3 L347.6,80.7 L350.5,81.1 L353.4,81.1 L356.3,79.8 L359.2,79.8 L362.2,79.0 L365.1,77.7 L368.0,76.8" fill="none" stroke="#C8102E" stroke-width="2" stroke-linejoin="round" stroke-linecap="round"/>
<circle cx="368.0" cy="76.8" r="2.6" fill="#C8102E"/>
<text x="368" y="19" fill="#D9A94C" font-family="system-ui, -apple-system, 'Helvetica Neue', Arial, sans-serif" font-size="14" font-weight="700" text-anchor="end">319</text>
</svg>